<svg
  display="none"
  xmlns="http://www.w3.org/2000/svg"
>
  <symbol
    id="burger-icon-white"
    viewBox="0 0 24 24"
  >
    <g>
      <path
        d="M4 8h16v2H4zM4 14h16v2H4z"
        fill="#fff"
      />
    </g>
  </symbol>

  <symbol
    id="burger-icon-black"
    viewBox="0 0 24 24"
  >
    <g>
      <path
        d="M4 8h16v2H4zM4 14h16v2H4z"
        fill="#1A1B22"
      />
    </g>
  </symbol>

  <symbol
    id="close-icon"
    viewBox="0 0 40 40"
  >
    <g>
      <path
        d="M22.357 20L30 27.643A1.667 1.667 0 1127.643 30l-9.293-9.293a1 1 0 010-1.414L27.643 10A1.667 1.667 0 0130 12.357L22.357 20z"
        fill="#fff"
      />
      <path
        d="M18.13 20l-7.642 7.643A1.667 1.667 0 1012.845 30l9.293-9.293a1 1 0 000-1.414L12.845 10a1.667 1.667 0 00-2.357 2.357L18.13 20z"
        fill="#fff"
      />
    </g>
  </symbol>

  <symbol id="not-found-icon">
    <g>
      <circle
        cx="43"
        cy="43"
        r="36.5"
        stroke="#D1D2D6"
        fill="#fff"
      />
      <path
        d="M69 69l19.5 19.5M58.328 55.959c-3.667-4.261-9.1-6.96-15.164-6.96-6.063 0-11.496 2.699-15.164 6.96" stroke="#D1D2D6"
        fill="#fff"
      />
      <circle
        cx="55.5"
        cy="33.5"
        r="1.5"
        fill="#D1D2D6"
      />
      <circle
        cx="30.5"
        cy="33.5"
        r="1.5"
        fill="#D1D2D6"
      />
    </g>
  </symbol>

  <symbol
    id="save-icon-marked"
    viewBox="0 0 14 19"
  >
    <g>
      <path
        d="M0 1a1 1 0 011-1h12a1 1 0 011 1v18l-7-5.5L0 19V1z"
        fill="#2F71E5"
      />
    </g>
  </symbol>

  <symbol
    id="save-icon"
    viewBox="0 0 14 19"
  >
    <g>
      <path
        d="M6.382 12.714L1 16.942V1h12v15.942l-5.382-4.228L7 12.228l-.618.486z"
        stroke-width="2"
        fill="#fff"
      />
    </g>
  </symbol>

  <symbol id="signout-icon-black">
    <g>
      <path
        fill-rule="evenodd"
        clip-rule="evenodd"
        d="M6 2H2v12h4v2H2a2 2 0 01-2-2V2a2 2 0 012-2h4v2zm7.586 7l-4.293 4.134 1.414 1.362 6.707-6.459-6.707-6.459L9.293 2.94l4.293 4.134H4V9h9.586z"
        fill="#1A1B22"
      />
    </g>
  </symbol>

  <symbol id="signout-icon-white">
    <g>
      <path
        fill-rule="evenodd"
        clip-rule="evenodd"
        d="M6 2H2v12h4v2H2a2 2 0 01-2-2V2a2 2 0 012-2h4v2zm7.586 7l-4.293 4.134 1.414 1.362 6.707-6.459-6.707-6.459L9.293 2.94l4.293 4.134H4V9h9.586z"
        fill="#fff"
      />
    </g>
  </symbol>

  <symbol
    id="github-icon"
    viewBox="0 0 22 21"
  >
    <g>
      <path
        fill-rule="evenodd"
        clip-rule="evenodd"
        d="M11 .895C5.417.895.895 5.423.895 11c0 4.466 2.897 8.25 6.91 9.59.503.093.689-.217.689-.49 0-.242-.007-.874-.013-1.718-2.81.608-3.405-1.352-3.405-1.352-.46-1.167-1.123-1.477-1.123-1.477-.918-.626.068-.614.068-.614 1.011.075 1.55 1.042 1.55 1.042.9 1.545 2.364 1.098 2.941.838.093-.652.354-1.098.64-1.352-2.246-.255-4.604-1.123-4.604-4.994 0-1.104.391-2.004 1.042-2.711-.105-.254-.452-1.284.1-2.674 0 0 .85-.273 2.779 1.036a9.806 9.806 0 012.53-.341 9.843 9.843 0 012.532.341c1.929-1.309 2.779-1.036 2.779-1.036.552 1.39.205 2.42.1 2.674.644.707 1.035 1.607 1.035 2.71 0 3.884-2.363 4.734-4.615 4.988.36.31.688.93.688 1.874 0 1.352-.012 2.438-.012 2.773 0 .273.18.583.695.483 4.013-1.34 6.904-5.123 6.904-9.584C21.105 5.423 16.583.895 11 .895z"
        fill="#191717"
      />
    </g>
  </symbol>

  <symbol
    id="facebook-icon"
    viewBox="0 0 20 20"
  >
    <g>
      <path
        d="M18.896 0H1.104C.494 0 0 .494 0 1.104v17.793C0 19.506.494 20 1.104 20h9.58v-7.745H8.076V9.237h2.606V7.01c0-2.583 1.578-3.99 3.883-3.99 1.104 0 2.052.082 2.329.119v2.7h-1.598c-1.254 0-1.496.597-1.496 1.47v1.928h2.989l-.39 3.018h-2.6V20h5.098c.608 0 1.102-.494 1.102-1.104V1.104C20 .494 19.506 0 18.896 0z"
        fill="#000"
      />
    </g>
  </symbol>

  <symbol
    id="trash-icon"
    viewBox="0 0 24 24"
  >
    <g>
      <path
        fill-rule="evenodd"
        clip-rule="evenodd"
        d="M15 3H9v2H3v2h18V5h-6V3zM5 9v11a2 2 0 002 2h10a2 2 0 002-2V9h-2v11H7V9H5zm4 0v9h2V9H9zm4 0v9h2V9h-2z"
      />
    </g>
  </symbol>
</svg>
